<svg xmlns="http://www.w3.org/2000/svg" width="3000" height="3000" viewBox="0 0 2250 2250"><path d="M798.542 920.536c130.318 333.066-262.964 272.075-485.88 339.3-389.195 177.332-108.018 1185.629 423.72 374.862 98.85-112.165 427.2-25.7 338.337 139.984-57.746 107.668 652.422 350.864 767.14 339.179 278.445 13.216 235.316-239.733 196.558-527.759-20.971-155.84-653.415-234.3-720.464-423.665-33.298-94.04-160.696-492.687-9.492-573.226 118.343-63.035 445.089 202.011 619.918 224.12 159.256 20.138 172.133-202.068 185.54-257.32 26.692-110-550.538-378.517-627.331-410.24-169.17-77.868-568.591 68.888-789.855 61.714-279.999-39.772-289.586 166.804-287.5 384.014 40.234 190.052 155.433 254.432 389.31 329.037Z" style="fill:none;stroke:#DDD;stroke-width:.908279px;stroke-linecap:butt;stroke-linejoin:miter;stroke-opacity:1" stroke-width='10' /></svg>
